<svg xmlns="http://www.w3.org/2000/svg" viewBox="0 0 50 50" width="512px" height="512px">
    <path d="M 37 6 L 30.072266 8.96875 L 30 8.96875 L 30 9 L 30 12 L 30 14.277344 C 29.704939 14.105811 29.366054 14 29 14 C 27.895 14 27 14.895 27 16 C 27 17.105 27.895 18 29 18 C 30.068095 18 30.931234 17.16122 30.988281 16.107422 L 31 16.107422 L 31 11.572266 L 36 9.4296875 L 36 12.277344 C 35.704939 12.105811 35.366054 12 35 12 C 33.895 12 33 12.895 33 14 C 33 15.105 33.895 16 35 16 C 36.105 16 37 15.105 37 14 L 37 9 L 37 6 z M 14 9 A 3 3 0 0 0 14 15 A 3 3 0 0 0 14 9 z M 41 12 L 41 15 L 41 18.277344 C 40.704939 18.105811 40.366054 18 40 18 C 38.895 18 38 18.895 38 20 C 38 21.105 38.895 22 40 22 C 41.105 22 42 21.105 42 20 L 42 15.199219 L 46 16 L 46 13 L 41 12 z M 19.5 14 A 1.5 1.5 0 0 0 19.451172 16.998047 L 18.132812 19.195312 L 14.875 16.367188 A 1.50015 1.50015 0 0 0 14.740234 16.261719 C 14.467515 16.03708 14.145802 15.866144 13.783203 15.775391 L 13.78125 15.775391 L 11.779297 15.273438 A 1.50015 1.50015 0 0 0 11.777344 15.273438 C 11.278148 15.149124 10.771663 15.193358 10.314453 15.363281 A 1.50015 1.50015 0 0 0 10.003906 15.490234 L 3.9980469 18.675781 A 1.50015 1.50015 0 0 0 3.3066406 19.443359 L 1.1074219 24.943359 A 1.50015 1.50015 0 1 0 3.8925781 26.056641 L 5.8886719 21.068359 L 7.8164062 20.046875 L 6.0898438 25.550781 A 1.50015 1.50015 0 0 0 6.046875 26.273438 L 7.4335938 33.779297 L 4.6582031 39.330078 A 1.50015 1.50015 0 0 0 4.8398438 41 L 1 41 A 1.0001 1.0001 0 1 0 1 43 L 27.5 43 L 30.5 43 L 42.5 43 L 45.5 43 L 49 43 A 1.0001 1.0001 0 1 0 49 41 L 47 41 L 47 36.265625 C 47 34.512324 45.673701 33.010265 43.933594 32.792969 L 38.564453 32.121094 L 36.892578 27.943359 A 1.50015 1.50015 0 0 0 35.498047 26.980469 A 1.50015 1.50015 0 0 0 34.107422 29.056641 L 36.107422 34.056641 A 1.50015 1.50015 0 0 0 37.314453 34.988281 L 41 35.449219 L 41 41 L 32 41 L 32 36.265625 C 32 34.512324 30.673701 33.010265 28.933594 32.792969 L 23.564453 32.121094 L 21.892578 27.943359 A 1.50015 1.50015 0 0 0 20.498047 26.980469 A 1.50015 1.50015 0 0 0 19.107422 29.056641 L 21.107422 34.056641 A 1.50015 1.50015 0 0 0 22.314453 34.988281 L 26 35.449219 L 26 41 L 16.134766 41 A 1.50015 1.50015 0 0 0 16.5 40 L 16.5 33 A 1.50015 1.50015 0 0 0 16.220703 32.128906 L 12.585938 27.039062 L 15.009766 20.457031 L 17.517578 22.632812 A 1.50015 1.50015 0 0 0 19.787109 22.271484 L 21.931641 18.699219 L 23.400391 19.800781 A 1.0003905 1.0003905 0 1 0 24.599609 18.199219 L 22.933594 16.951172 A 1.50015 1.50015 0 0 0 21.548828 14.982422 A 1.50015 1.50015 0 0 0 20.941406 15.09375 A 1.5 1.5 0 0 0 19.5 14 z M 29 26 A 3 3 0 0 0 29 32 A 3 3 0 0 0 29 26 z M 44 26 A 3 3 0 0 0 44 32 A 3 3 0 0 0 44 26 z M 9.3574219 27.681641 L 13.5 33.480469 L 13.5 40 A 1.50015 1.50015 0 0 0 13.865234 41 L 7.1269531 41 A 1.50015 1.50015 0 0 0 7.3417969 40.669922 L 10.341797 34.669922 A 1.50015 1.50015 0 0 0 10.474609 33.726562 L 9.3574219 27.681641 z"/>
</svg>