<svg xmlns="http://www.w3.org/2000/svg" viewBox="0 0 64 64" width="512px" height="512px">
    <path d="M 44.181641 1 L 38.798828 6.5214844 C 36.634587 6.1936706 34.36724 6 32 6 C 17.421 6 6 12.589 6 21 C 6 29.411 17.421 36 32 36 C 46.579 36 58 29.411 58 21 C 58 19.704 57.726844 18.451766 57.214844 17.259766 L 53.728516 19.316406 C 53.906516 19.866406 54 20.429 54 21 C 54 26.963 43.925 32 32 32 C 20.075 32 10 26.963 10 21 C 10 15.037 20.075 10 32 10 C 33.111654 10 34.202535 10.052523 35.275391 10.136719 L 27.367188 18.248047 A 2.16 3 46.411 0 0 25.371094 19.251953 A 2.16 3 46.411 0 0 28.349609 22.380859 A 2.16 3 46.411 0 0 29.464844 20.359375 L 46.990234 3.8496094 C 46.990234 3.8496094 47.172625 3.2525156 46.015625 2.1035156 C 44.858625 0.95451562 44.181641 1 44.181641 1 z M 46.818359 8.6035156 L 43.537109 11.693359 C 45.604542 12.346631 47.44413 13.168735 48.990234 14.113281 L 36.650391 22.166016 A 2.16 3 59.015 0 0 34.488281 22.710938 A 2.16 3 59.015 0 0 36.712891 26.414062 A 2.16 3 59.015 0 0 38.244141 24.681641 L 58.947266 12.392578 C 58.947266 12.392578 59.257906 11.850563 58.378906 10.476562 C 57.499906 9.1035625 56.828125 9 56.828125 9 L 52.603516 11.755859 C 50.973958 10.538704 49.025908 9.473729 46.818359 8.6035156 z M 6 28 L 6 42 C 6 46.802 9.916 51.072359 16 53.818359 L 16 35.988281 C 8.581 32.732281 6 28 6 28 z M 58 29.621094 C 58 29.621094 54.58 33.168391 48 35.900391 L 48 53.818359 C 54.084 51.072359 58 46.802 58 42 L 58 29.621094 z M 45 36.996094 C 41.386 38.162094 37.056 39 32 39 C 26.746 39 22.467 38.236187 19 37.117188 L 19 54.988281 C 22.825 56.265281 27.263 57 32 57 C 36.737 57 41.175 56.265281 45 54.988281 L 45 36.996094 z"/>
</svg>