<svg xmlns="http://www.w3.org/2000/svg" viewBox="0 0 48 48" width="512px" height="512px">
    <radialGradient id="LEBIybLz8d2L91uQT2cFTa" cx="24" cy="24" r="17" gradientUnits="userSpaceOnUse">
        <stop offset="0" stop-color="#050505"/>
        <stop offset=".615" stop-color="#2b2b2b"/>
        <stop offset="1" stop-color="#454545"/>
    </radialGradient>
    <path fill="url(#LEBIybLz8d2L91uQT2cFTa)"
          d="M9.313,7h29.374C39.964,7,41,8.036,41,9.313v29.374C41,39.964,39.964,41,38.687,41H9.313 C8.036,41,7,39.964,7,38.687V9.313C7,8.036,8.036,7,9.313,7z"/>
    <linearGradient id="LEBIybLz8d2L91uQT2cFTb" x1="36" x2="36" y1="39" y2="9" gradientUnits="userSpaceOnUse">
        <stop offset=".034" stop-color="#e0e0e0"/>
        <stop offset=".057" stop-color="#c7c7c7"/>
        <stop offset=".065" stop-color="#fff"/>
        <stop offset=".163" stop-color="#f9f9f9"/>
        <stop offset=".394" stop-color="#f7f7f7"/>
        <stop offset=".915" stop-color="#d6d6d6"/>
        <stop offset=".917" stop-color="#c9c8c8"/>
        <stop offset="1" stop-color="#adaaaa"/>
    </linearGradient>
    <path fill="url(#LEBIybLz8d2L91uQT2cFTb)"
          d="M38,9h-4c-0.552,0-1,0.448-1,1v28.5c0,0.276,0.224,0.5,0.5,0.5h5c0.276,0,0.5-0.224,0.5-0.5 V10C39,9.448,38.552,9,38,9z"/>
    <linearGradient id="LEBIybLz8d2L91uQT2cFTc" x1="28" x2="28" y1="39" y2="9" gradientUnits="userSpaceOnUse">
        <stop offset=".034" stop-color="#e0e0e0"/>
        <stop offset=".057" stop-color="#c7c7c7"/>
        <stop offset=".065" stop-color="#fff"/>
        <stop offset=".163" stop-color="#f9f9f9"/>
        <stop offset=".394" stop-color="#f7f7f7"/>
        <stop offset=".915" stop-color="#d6d6d6"/>
        <stop offset=".917" stop-color="#c9c8c8"/>
        <stop offset="1" stop-color="#adaaaa"/>
    </linearGradient>
    <path fill="url(#LEBIybLz8d2L91uQT2cFTc)"
          d="M30,9h-4c-0.552,0-1,0.448-1,1v28.5c0,0.276,0.224,0.5,0.5,0.5h5c0.276,0,0.5-0.224,0.5-0.5 V10C31,9.448,30.552,9,30,9z"/>
    <linearGradient id="LEBIybLz8d2L91uQT2cFTd" x1="20" x2="20" y1="39" y2="9" gradientUnits="userSpaceOnUse">
        <stop offset=".034" stop-color="#e0e0e0"/>
        <stop offset=".057" stop-color="#c7c7c7"/>
        <stop offset=".065" stop-color="#fff"/>
        <stop offset=".163" stop-color="#f9f9f9"/>
        <stop offset=".394" stop-color="#f7f7f7"/>
        <stop offset=".915" stop-color="#d6d6d6"/>
        <stop offset=".917" stop-color="#c9c8c8"/>
        <stop offset="1" stop-color="#adaaaa"/>
    </linearGradient>
    <path fill="url(#LEBIybLz8d2L91uQT2cFTd)"
          d="M22,9h-4c-0.552,0-1,0.448-1,1v28.5c0,0.276,0.224,0.5,0.5,0.5h5c0.276,0,0.5-0.224,0.5-0.5 V10C23,9.448,22.552,9,22,9z"/>
    <linearGradient id="LEBIybLz8d2L91uQT2cFTe" x1="12" x2="12" y1="39" y2="9" gradientUnits="userSpaceOnUse">
        <stop offset=".034" stop-color="#e0e0e0"/>
        <stop offset=".057" stop-color="#c7c7c7"/>
        <stop offset=".065" stop-color="#fff"/>
        <stop offset=".163" stop-color="#f9f9f9"/>
        <stop offset=".394" stop-color="#f7f7f7"/>
        <stop offset=".915" stop-color="#d6d6d6"/>
        <stop offset=".917" stop-color="#c9c8c8"/>
        <stop offset="1" stop-color="#adaaaa"/>
    </linearGradient>
    <path fill="url(#LEBIybLz8d2L91uQT2cFTe)"
          d="M14,9h-4c-0.552,0-1,0.448-1,1v28.5C9,38.776,9.224,39,9.5,39h5c0.276,0,0.5-0.224,0.5-0.5V10 C15,9.448,14.552,9,14,9z"/>
    <path fill="#050505"
          d="M26,6h-4c-0.552,0-1,0.448-1,1v18c0,0.552,0.448,1,1,1h4c0.552,0,1-0.448,1-1V7 C27,6.448,26.552,6,26,6z"/>
    <linearGradient id="LEBIybLz8d2L91uQT2cFTf" x1="24" x2="24" y1="24" y2="6" gradientUnits="userSpaceOnUse">
        <stop offset="0" stop-color="#454545"/>
        <stop offset=".873" stop-color="#212121"/>
        <stop offset=".88" stop-color="#050505"/>
    </linearGradient>
    <path fill="url(#LEBIybLz8d2L91uQT2cFTf)"
          d="M25.394,6h-2.788C22.271,6,22,6.271,22,6.606v16.788C22,23.729,22.271,24,22.606,24h2.788 C25.729,24,26,23.729,26,23.394V6.606C26,6.271,25.729,6,25.394,6z"/>
    <path fill="#050505"
          d="M34,6h-4c-0.552,0-1,0.448-1,1v18c0,0.552,0.448,1,1,1h4c0.552,0,1-0.448,1-1V7 C35,6.448,34.552,6,34,6z"/>
    <linearGradient id="LEBIybLz8d2L91uQT2cFTg" x1="32" x2="32" y1="24" y2="6" gradientUnits="userSpaceOnUse">
        <stop offset="0" stop-color="#454545"/>
        <stop offset=".873" stop-color="#212121"/>
        <stop offset=".88" stop-color="#050505"/>
    </linearGradient>
    <path fill="url(#LEBIybLz8d2L91uQT2cFTg)"
          d="M33.394,6h-2.788C30.271,6,30,6.271,30,6.606v16.788C30,23.729,30.271,24,30.606,24h2.788 C33.729,24,34,23.729,34,23.394V6.606C34,6.271,33.729,6,33.394,6z"/>
    <path fill="#050505"
          d="M18,6h-4c-0.552,0-1,0.448-1,1v18c0,0.552,0.448,1,1,1h4c0.552,0,1-0.448,1-1V7 C19,6.448,18.552,6,18,6z"/>
    <linearGradient id="LEBIybLz8d2L91uQT2cFTh" x1="16" x2="16" y1="24" y2="6" gradientUnits="userSpaceOnUse">
        <stop offset="0" stop-color="#454545"/>
        <stop offset=".873" stop-color="#212121"/>
        <stop offset=".88" stop-color="#050505"/>
    </linearGradient>
    <path fill="url(#LEBIybLz8d2L91uQT2cFTh)"
          d="M17.394,6h-2.788C14.271,6,14,6.271,14,6.606v16.788C14,23.729,14.271,24,14.606,24h2.788 C17.729,24,18,23.729,18,23.394V6.606C18,6.271,17.729,6,17.394,6z"/>
</svg>